<?xml version="1.0" encoding="UTF-8" standalone="no"?>
<svg
   width="128"
   height="128"
   viewBox="0 0 274.28611 274.28611"
   fill="none"
   version="1.1"
   id="svg3"
   sodipodi:docname="io.greenfire.Greenery-Inkscape-275-ViewBox.svg"
   inkscape:version="1.3.2 (091e20ef0f, 2023-11-25)"
   xmlns:inkscape="http://www.inkscape.org/namespaces/inkscape"
   xmlns:sodipodi="http://sodipodi.sourceforge.net/DTD/sodipodi-0.dtd"
   xmlns="http://www.w3.org/2000/svg"
   xmlns:svg="http://www.w3.org/2000/svg">
  <defs
     id="defs3" />
  <sodipodi:namedview
     id="namedview3"
     pagecolor="#ffffff"
     bordercolor="#000000"
     borderopacity="0.25"
     inkscape:showpageshadow="true"
     inkscape:pageopacity="0.0"
     inkscape:pagecheckerboard="true"
     inkscape:deskcolor="#d1d1d1"
     showborder="true"
     borderlayer="true"
     inkscape:lockguides="false"
     inkscape:zoom="2.5833333"
     inkscape:cx="150.19355"
     inkscape:cy="119.41935"
     inkscape:window-width="1698"
     inkscape:window-height="991"
     inkscape:window-x="26"
     inkscape:window-y="23"
     inkscape:window-maximized="0"
     inkscape:current-layer="svg3" />
  <path
     d="m 139.14301,8.4937862 c 0.68875,-0.00626 1.3775,-0.012528 2.08713,-0.018982 18.83178,-0.1082464 38.2594,2.6326808 52.19803,16.4056998 5.85481,6.311653 7.52619,11.595876 7.33984,20.179687 -1.15485,10.61018 -7.64034,18.893552 -15.50391,25.644531 -6.15657,4.175299 -12.639,3.861563 -19.80859,3.226563 -2.84133,-0.559955 -5.63541,-1.270876 -8.4375,-2 -17.87334,-4.585003 -37.2178,-1.680402 -53.27735,7.5625 -13.75021,9.152685 -21.970201,21.474155 -28.347652,36.437495 -0.31147,0.71801 -0.622939,1.43602 -0.943848,2.17578 -1.656805,4.0848 -2.220357,6.59811 -0.993652,10.82422 -0.0054,1.75049 -0.05005,3.50111 -0.125,5.25 -0.120902,19.65859 6.370793,39.15067 19.875,53.65234 13.371562,12.4662 31.576652,16.73081 49.453122,16.28125 15.28924,-1.00362 28.69306,-4.50487 40.79688,-14.18359 0.83531,-0.62777 1.67062,-1.25555 2.53125,-1.90234 7.71815,-6.55799 12.30031,-16.05026 16.46875,-25.09766 9.80424,4.35744 15.56194,14.41222 19.8125,23.8125 4.55376,12.22326 2.97371,26.30961 -1.8125,38.1875 -8.82886,18.35525 -19.66419,28.45931 -38.48438,35.60547 -11.68827,3.80846 -22.67901,4.88045 -34.87329,4.78564 -2.44189,-0.016 -4.88212,-9e-5 -7.32397,0.019 -13.90995,0.0192 -27.27741,-1.8376 -40.630862,-5.84761 -0.700605,-0.19143 -1.401211,-0.38285 -2.123047,-0.58008 -4.280317,-1.25844 -6.518042,-2.81496 -9.564453,-5.98242 -1.32,0 -2.64,0 -4,0 -29.211812,-13.46865 -53.15187,-41.6385 -64.999999,-71 -4.78834,-13.05391 -6.4172,-25.57241 -6.375,-39.4375 0.001,-1.05739 0.001,-1.05739 0.003,-2.13614 0.0485,-11.85799 1.04575,-23.00586 4.37234,-34.42635 0.37802,-1.30784 0.37802,-1.30784 0.76367,-2.64209 6.830129,-23.016888 17.658449,-41.151127 34.236329,-58.357915 0.653555,-0.716719 1.307109,-1.433437 1.980469,-2.171875 13.220672,-14.094896 31.697667,-24.161235 50.019193,-29.828124 0.66967,-0.211728 1.33933,-0.423457 2.0293,-0.641601 11.06912,-3.3291806 22.18166,-3.7471538 33.6582,-3.7958988 z M 70.455508,126.93128 c 1,3 1,3 1,3 z m -1,3 c 1,3 1,3 1,3 z m -1,3 c -0.33,2.31 -0.66,4.62 -1,7 2.306719,-2.71549 2.306719,-2.71549 1.625,-5.1875 -0.20625,-0.59812 -0.4125,-1.19625 -0.625,-1.8125 z m -2,7 c -0.482923,2.33261 -0.961399,4.666 -1.4375,7 -0.134707,0.6484 -0.269414,1.2968 -0.408203,1.96484 -1.844944,9.08972 -2.310817,17.76822 -2.279297,27.03516 -0.0039,1.13695 -0.0077,2.27391 -0.01172,3.44531 0.0069,5.94727 0.228869,11.67528 1.136719,17.55469 0.33,0 0.66,0 1,0 -0.01571,-0.90017 -0.03142,-1.80034 -0.04761,-2.72778 -0.477644,-31.55876 -0.477644,-31.55876 2.391357,-45.78785 0.555417,-2.94899 0.795018,-5.50085 0.65625,-8.48437 -0.33,0 -0.66,0 -1,0 z m -2,57 c 0,1.98 0,3.96 0,6 0.33,0 0.66,0 1,0 0,-1.98 0,-3.96 0,-6 -0.33,0 -0.66,0 -1,0 z m 1,6 c 1,4 1,4 1,4 z m 1,4 c 1,4 1,4 1,4 z m 1,4 c 1,4 1,4 1,4 z m 1,4 c 1,3 1,3 1,3 z m 1,3 c 1,3 1,3 1,3 z m 1,3 c 1,2 1,2 1,2 z m 1,3 c 1,2 1,2 1,2 z m 1,2 c 1,2 1,2 1,2 z m 2,5 c 1,2 1,2 1,2 z m 1,2 c 1,2 1,2 1,2 z m 1,2 c 1,2 1,2 1,2 z m 1,2 c 1,2 1,2 1,2 z m 3,5 c 1,2 1,2 1,2 z m 1,2 c 1,2 1,2 1,2 z m 2,3 c 1,2 1,2 1,2 z m 2,3 c 1,2 1,2 1,2 z"
     fill="#24acb8"
     id="path1" />
  <path
     d="m 68.847569,125.93128 c 1.032618,3.09786 1.00973,4.90045 0.875,8.125 -0.119169,19.71063 6.326979,39.22862 19.875,53.77734 13.371561,12.4662 31.576651,16.73081 49.453121,16.28125 15.28924,-1.00362 28.69306,-4.50487 40.79688,-14.18359 0.83531,-0.62777 1.67063,-1.25555 2.53125,-1.90234 7.71815,-6.55799 12.30032,-16.05026 16.46875,-25.09766 9.80424,4.35744 15.56194,14.41222 19.8125,23.8125 4.55376,12.22326 2.97371,26.30961 -1.8125,38.1875 -8.82886,18.35525 -19.66419,28.45931 -38.48437,35.60547 -11.68828,3.80846 -22.67902,4.88045 -34.8733,4.78564 -2.4419,-0.016 -4.88212,-9e-5 -7.32397,0.019 -13.87923,0.0191 -27.22908,-1.84457 -40.568361,-5.78511 -0.692227,-0.18305 -1.384453,-0.36609 -2.097656,-0.55469 -9.708536,-2.8216 -13.508285,-11.19809 -18.15625,-19.41406 -17.417163,-31.91052 -19.725337,-69.18007 -10.375,-104.01562 2.446266,-8.20799 2.446266,-8.20799 3.878906,-9.64063 z"
     fill="#0de6e5"
     id="path2" />
  <path
     d="m 136.84757,105.93129 c 40.92,0 81.84,0 124,0 5.87333,21.53552 6.79301,46.44516 0,67.99999 -0.21962,0.69964 -0.43925,1.39928 -0.66553,2.12012 -9.35201,28.76423 -29.22148,53.26256 -54.33447,69.87988 0,-4.01822 1.98508,-6.19189 4.1875,-9.375 8.91197,-13.31549 12.12258,-26.69342 10.8125,-42.625 -1.72852,-8.28702 -6.13464,-17.18295 -12.1875,-23.16016 -1.8125,-1.83984 -1.8125,-1.83984 -1.8125,-3.83984 -0.59812,-0.26813 -1.19625,-0.53625 -1.8125,-0.8125 -2.1875,-1.1875 -2.1875,-1.1875 -3.56104,-2.72485 -2.03149,-1.82689 -3.13786,-1.8969 -5.8374,-2.05249 -0.82645,-0.0596 -1.6529,-0.11924 -2.50439,-0.18067 -1.31654,-0.0827 -1.31654,-0.0827 -2.65967,-0.16699 -12.57136,-1.0403 -23.17775,-3.72169 -33.625,-11.0625 -0.63551,-0.43957 -1.27102,-0.87914 -1.92578,-1.33203 -10.19729,-7.84581 -15.35346,-20.88274 -17.77735,-33.14844 -0.3715,-3.15291 -0.29687,-6.34481 -0.29687,-9.51952 z"
     fill="#22ada2"
     id="path3" />
</svg>
